Coordinates
version=1
nRows=15
nColumns=46
inDegrees=yes

Units are S.I. units (second, meters, Newtons, ...)
Angles are in degrees.

endheader
time	pelvis_tilt	pelvis_list	pelvis_rotation	pelvis_tx	pelvis_ty	pelvis_tz	bb_angle	bb_tx	bb_ty	bb_tz	hip_flexion_r	hip_adduction_r	hip_rotation_r	knee_angle_r	knee_angle_r_beta	ankle_angle_r	subtalar_angle_r	mtp_angle_r	crank_angle_r	hip_flexion_l	hip_adduction_l	hip_rotation_l	knee_angle_l	knee_angle_l_beta	ankle_angle_l	subtalar_angle_l	mtp_angle_l	crank_angle_l	lumbar_extension	lumbar_bending	lumbar_rotation	arm_flex_r	arm_add_r	arm_rot_r	elbow_flex_r	pro_sup_r	wrist_flex_r	wrist_dev_r	arm_flex_l	arm_add_l	arm_rot_l	elbow_flex_l	pro_sup_l	wrist_flex_l	wrist_dev_l
      2.50500000	    -24.44362185	      0.74650944	      5.93477299	      0.35635905	      1.10746648	     -0.23679931	      0.00000000	      0.50000000	      0.00000000	      0.25000000	     37.17366822	     -7.68558003	     -2.69761659	     58.63960739	      1.02345422	     -5.82107123	     -6.07795951	      0.00000000	      0.00000000	     65.22778585	     -2.96491289	      1.05778571	     69.44637375	      1.21206788	     22.61803506	      5.04751021	      0.00000000	      0.00000000	    -52.39156221	    -10.36538398	     -0.60533145	     38.79209181	    -17.05391600	      1.59106153	     70.68793325	     48.69513391	      0.00000000	      0.00000000	     61.24386397	    -13.54550769	     34.93619609	     70.43618889	     47.97624979	      0.00000000	      0.00000000
      2.51000000	    -24.20797449	      0.05634135	      5.47608593	      0.35649105	      1.10721869	     -0.23762462	      0.00000000	      0.50000000	      0.00000000	      0.25000000	     37.78520975	     -6.97071325	     -2.74113558	     60.80915782	      1.06132002	     -5.07170247	     -6.49878569	      0.00000000	      0.00000000	     64.12092811	     -3.64919619	      1.28928405	     67.42689780	      1.17682137	     21.99129378	      5.15941721	      0.00000000	      0.00000000	    -52.38878218	     -9.88075101	      0.04467716	     38.95627207	    -17.10735294	      1.74327037	     70.68781696	     48.71544641	      0.00000000	      0.00000000	     60.86411777	    -13.60194233	     34.81829315	     70.51280769	     47.98242332	      0.00000000	      0.00000000
      2.51500000	    -24.26350348	     -0.28548090	      4.60770602	      0.35628411	      1.10597301	     -0.23788025	      0.00000000	      0.50000000	      0.00000000	      0.25000000	     38.93361066	     -6.28833162	     -2.07939403	     63.36944727	      1.10600550	     -3.56700132	     -6.60295170	      0.00000000	      0.00000000	     63.30750159	     -4.58797625	      0.77538527	     65.56478812	      1.14432143	     20.79456905	      4.93883065	      0.00000000	      0.00000000	    -52.11282605	    -10.04471451	      0.52533523	     39.32484271	    -17.71090415	      2.44452677	     70.62188937	     48.80620540	      0.00000000	      0.00000000	     60.05634949	    -13.36632720	     33.93102024	     71.20357514	     48.01940732	      0.00000000	      0.00000000
      2.52000000	    -24.19102121	     -0.76722465	      3.96968121	      0.35622614	      1.10478795	     -0.23862187	      0.00000000	      0.50000000	      0.00000000	      0.25000000	     39.86455637	     -5.66196319	     -1.76581417	     65.80396786	      1.14849590	     -2.38612219	     -6.35332935	      0.00000000	      0.00000000	     62.35317789	     -5.33755596	      0.61868570	     63.70614071	      1.11188191	     19.85962011	      4.84100760	      0.00000000	      0.00000000	    -51.93172025	     -9.65825484	      0.45808400	     40.31175384	    -18.32519432	      5.08138365	     70.02588238	     49.14641679	      0.00000000	      0.00000000	     58.17666659	    -13.51780234	     31.13353132	     73.12360652	     48.09304206	      0.00000000	      0.00000000
      2.52500000	    -23.94855516	     -1.34549798	      3.40313584	      0.35621146	      1.10377922	     -0.23908869	      0.00000000	      0.50000000	      0.00000000	      0.25000000	     40.57650454	     -4.90949416	     -1.57222308	     68.14543578	      1.18936222	     -1.38988683	     -6.68693407	      0.00000000	      0.00000000	     61.20433543	     -6.12605723	      0.57587759	     61.83734611	      1.07926529	     18.92641415	      4.97541951	      0.00000000	      0.00000000	    -51.90388846	     -9.34104645	      1.06400922	     40.64216883	    -18.38437687	      5.18440706	     70.01341513	     49.16312159	      0.00000000	      0.00000000	     57.77550180	    -13.50796628	     31.07313944	     73.22708677	     48.10996855	      0.00000000	      0.00000000
      2.53000000	    -23.62054555	     -1.96184614	      2.88779781	      0.35610444	      1.10261367	     -0.23955965	      0.00000000	      0.50000000	      0.00000000	      0.25000000	     41.25523044	     -4.17012271	     -1.46723320	     70.56703315	      1.23162707	     -0.69324548	     -6.83921893	      0.00000000	      0.00000000	     59.96435324	     -6.87914534	      0.65347116	     60.02476002	      1.04762970	     18.22248451	      5.05517595	      0.00000000	      0.00000000	    -51.88053369	     -8.94858098	      1.73687132	     40.79829935	    -18.36180936	      5.36691177	     70.01126068	     49.18564279	      0.00000000	      0.00000000	     57.49798842	    -13.53569383	     30.94733918	     73.31841878	     48.11679331	      0.00000000	      0.00000000
      2.53500000	    -23.40931290	     -1.81012268	      2.15122446	      0.35600089	      1.10141754	     -0.23965677	      0.00000000	      0.50000000	      0.00000000	      0.25000000	     42.18305702	     -3.95877093	     -0.51691903	     73.24740882	      1.27840845	      1.43155827	     -5.54348077	      0.00000000	      0.00000000	     58.53371870	     -7.35708728	     -0.25886751	     57.95576634	      1.01151894	     16.95665489	      4.39703970	      0.00000000	      0.00000000	    -51.98858758	     -9.34231598	      1.69550829	     41.26616302	    -18.96495737	      6.78617227	     69.94214407	     49.37042612	      0.00000000	      0.00000000	     56.64810621	    -13.25654606	     29.55421398	     74.14988078	     48.13158461	      0.00000000	      0.00000000
      2.54000000	    -23.13284860	     -2.41089408	      1.64719842	      0.35597195	      1.09977928	     -0.23973116	      0.00000000	      0.50000000	      0.00000000	      0.25000000	     42.93321472	     -3.14393177	     -0.34426380	     75.72466938	      1.32164481	      2.65567830	     -5.76618737	      0.00000000	      0.00000000	     57.31732692	     -8.16098689	     -0.31304261	     56.19772203	      0.98083528	     15.78277898	      4.79497652	      0.00000000	      0.00000000	    -51.88201710	     -8.94038541	      2.28048065	     41.59393744	    -19.01236808	      7.24350884	     70.00501504	     49.43913439	      0.00000000	      0.00000000	     56.12908260	    -13.28174063	     29.18431735	     74.34704392	     48.13637650	      0.00000000	      0.00000000
      2.54500000	    -23.12161207	     -2.97557319	      0.84612853	      0.35598840	      1.09738579	     -0.24049246	      0.00000000	      0.50000000	      0.00000000	      0.25000000	     44.07681451	     -2.32417961	      0.10647596	     78.30086641	      1.36660793	      4.08283098	     -4.83543131	      0.00000000	      0.00000000	     56.33210074	     -9.05874869	     -0.55627931	     54.59627736	      0.95288480	     14.94462110	      4.66742671	      0.00000000	      0.00000000	    -51.52243250	     -8.51155231	      2.35154705	     42.63617808	    -19.63881160	     10.36534381	     69.47428819	     49.80091199	      0.00000000	      0.00000000	     54.13789402	    -13.33510160	     26.28118143	     76.19908081	     48.20527223	      0.00000000	      0.00000000
      2.55000000	    -22.83404311	     -3.48507133	      0.14386305	      0.35581771	      1.09558398	     -0.24058520	      0.00000000	      0.50000000	      0.00000000	      0.25000000	     44.93225628	     -1.46703895	      0.58902208	     80.79359475	      1.41011424	      5.34766879	     -4.20634422	      0.00000000	      0.00000000	     54.98836887	     -9.94902165	     -0.90662275	     52.88118999	      0.92295088	     14.11849908	      4.68197302	      0.00000000	      0.00000000	    -51.45071026	     -8.33156029	      3.02134793	     42.89917220	    -19.78503139	     10.84450470	     69.37958803	     49.86379000	      0.00000000	      0.00000000	     53.14298638	    -13.03482656	     25.40496072	     76.77020298	     48.22697857	      0.00000000	      0.00000000
      2.55500000	    -22.60442823	     -3.93826697	     -0.43849087	      0.35572168	      1.09347790	     -0.24129243	      0.00000000	      0.50000000	      0.00000000	      0.25000000	     45.88115200	     -0.83493742	      0.90392746	     83.34954465	      1.45472398	      6.46854993	     -3.30988754	      0.00000000	      0.00000000	     53.63949175	    -10.52793824	     -1.02009820	     51.10745559	      0.89199337	     13.21212595	      4.29542572	      0.00000000	      0.00000000	    -51.30068752	     -7.89532113	      3.52420140	     43.25305386	    -20.00343498	     11.86238621	     69.50351583	     50.02043874	      0.00000000	      0.00000000	     52.20719600	    -12.96429834	     24.27706332	     77.34405053	     48.22436851	      0.00000000	      0.00000000
      2.56000000	    -22.22117135	     -4.37018460	     -0.79909101	      0.35551515	      1.09149992	     -0.24214134	      0.00000000	      0.50000000	      0.00000000	      0.25000000	     46.66403911	     -0.36295651	      1.05940407	     85.85632644	      1.49847558	      7.80451618	     -2.70730364	      0.00000000	      0.00000000	     52.16353399	    -10.95767116	     -1.10531316	     49.37520577	      0.86175991	     12.21330958	      4.02058522	      0.00000000	      0.00000000	    -51.42002761	     -7.35749622	      3.70378529	     43.80746492	    -20.31077490	     13.12592228	     69.61643436	     50.20020482	      0.00000000	      0.00000000	     51.33426502	    -12.86286443	     23.06427344	     77.94399486	     48.21894426	      0.00000000	      0.00000000
      2.56500000	    -21.96006072	     -5.05793993	     -1.31275487	      0.35535455	      1.08897621	     -0.24261582	      0.00000000	      0.50000000	      0.00000000	      0.25000000	     47.59746700	      0.47288715	      1.09490382	     88.29317328	      1.54100658	      8.79006085	     -2.66695541	      0.00000000	      0.00000000	     50.91060477	    -11.75964283	     -1.09837807	     47.90560106	      0.83611047	     11.43276241	      4.16090977	      0.00000000	      0.00000000	    -51.22896308	     -6.77236228	      4.38504195	     44.08568764	    -20.37397347	     13.53564715	     69.67122009	     50.25738045	      0.00000000	      0.00000000	     50.68648374	    -12.87606774	     22.76016777	     78.07234998	     48.21995085	      0.00000000	      0.00000000
      2.57000000	    -21.73933403	     -5.51606356	     -1.86948247	      0.35519212	      1.08636373	     -0.24327658	      0.00000000	      0.50000000	      0.00000000	      0.25000000	     48.63256129	      1.08531503	      1.36067175	     90.76993052	      1.58423415	     10.12879473	     -1.62926210	      0.00000000	      0.00000000	     49.58447215	    -12.34849723	     -1.25304269	     46.38575689	      0.80958418	     10.64326569	      3.95716912	      0.00000000	      0.00000000	    -51.09171697	     -6.28367440	      4.61978604	     44.84104591	    -21.01972379	     15.82354818	     69.60524051	     50.52551637	      0.00000000	      0.00000000	     49.40169471	    -12.43471090	     20.60474458	     78.99032739	     48.18948570	      0.00000000	      0.00000000
      2.57500000	    -21.48169864	     -6.17474269	     -2.35926876	      0.35491295	      1.08372336	     -0.24389306	      0.00000000	      0.50000000	      0.00000000	      0.25000000	     49.63595108	      1.83294662	      1.28660658	     93.09026423	      1.62473161	     10.81768930	     -1.73253082	      0.00000000	      0.00000000	     48.31766737	    -13.07681491	     -1.20603238	     45.02914630	      0.78590686	     10.07361929	      3.98229730	      0.00000000	      0.00000000	    -50.94364620	     -5.68093311	      5.30169140	     45.11383539	    -21.00521130	     16.01795384	     69.65493915	     50.55420961	      0.00000000	      0.00000000	     48.88055872	    -12.46312544	     20.49848878	     79.02128479	     48.19228566	      0.00000000	      0.00000000
